# xmcd CD database file
#
# Track frame offsets:
#	150
#	57449
#	101653
#	143315
#	164802
#	185114
#	201993
#	229312
#	262464
#	302959
#
# Disc length: 4299 seconds
#
# Revision: 2
# Processed by: cddbd v1.5.2PL0 Copyright (c) Steve Scherf et al.
# Submitted via: CDex 1.51
#
DISCID=a010c90a
DTITLE=Various Artist - Super Hits - Jazz
DYEAR=1900
DGENRE=Jazz
TTITLE0=Freddie Hubbard/Bolivia
TTITLE1=Chick Corea/Sea Breeze
TTITLE2=Dave Brubeck/Take Five
TTITLE3=Chet Baker/I Should Have Told You So
TTITLE4=Count Basie/One O'Clock Jump
TTITLE5=Jimmy Hamilton/Misty
TTITLE6=Wynton Marsalis/Jodi
TTITLE7=Stan Gets/Autumn Leaves
TTITLE8=Art Blackey/My Funny Valentine
TTITLE9=Dexter Gordon/Lullaby Of Birdland
EXTD=
EXTT0=
EXTT1=
EXTT2=
EXTT3=
EXTT4=
EXTT5=
EXTT6=
EXTT7=
EXTT8=
EXTT9=
PLAYORDER=
